<svg width="16" height="28" viewBox="0 0 16 28" fill="none" xmlns="http://www.w3.org/2000/svg">
<path d="M14.4 0L1.6 0C0.7176 0 0 0.784 0 1.75L0 26.25C0 27.2169 0.7168 28 1.6 28H14.4C15.284 28 16 27.2169 16 26.25V1.75C16 0.784875 15.284 0 14.4 0ZM7.2 1.75H8.8C9.2408 1.75 9.6 2.142 9.6 2.625C9.6 3.108 9.2408 3.5 8.8 3.5L7.2 3.5C6.7584 3.5 6.4 3.108 6.4 2.625C6.4 2.142 6.7584 1.75 7.2 1.75ZM8.8 26.25H7.2C6.7584 26.25 6.4 25.8571 6.4 25.375C6.4 24.8929 6.7584 24.5 7.2 24.5H8.8C9.2408 24.5 9.6 24.8929 9.6 25.375C9.6 25.8571 9.2408 26.25 8.8 26.25ZM14.4 22.75H1.6L1.6 5.25H14.4V22.75Z" fill="#DA254C"/>
</svg>
