<svg width="149" height="223" viewBox="0 0 149 223" fill="none" xmlns="http://www.w3.org/2000/svg">
<path d="M84.7203 0L82.3992 0C81.1173 0 80.0781 0.943994 80.0781 2.10847V39.4926C80.0781 40.6571 81.1173 41.6011 82.3992 41.6011H84.7203C86.0022 41.6011 87.0414 40.6571 87.0414 39.4926V2.10847C87.0414 0.943994 86.0022 0 84.7203 0Z" fill="#121211"/>
<path d="M138.741 54.6198C138.554 53.9175 138.171 53.2705 137.63 52.741C137.089 52.2115 136.407 51.8173 135.649 51.5961L85.2809 36.8986C84.3575 36.6289 83.3642 36.6289 82.4407 36.8986L32.0736 51.5961C31.2372 51.8403 30.4942 52.295 29.9311 52.9076C29.3679 53.5201 29.0077 54.2652 28.8923 55.0564C25.977 74.9916 24.0945 93.4179 23.2673 109.909C18.9466 113.526 2.63782 128.843 0.017927 156.045C-0.0353777 156.594 0.0304701 157.147 0.211738 157.673C0.718481 159.142 12.9016 193.599 42.7619 208.783C43.4376 209.377 44.1769 209.908 44.9688 210.369C56.3719 217.963 70.1243 222.09 84.2631 222.163C99.1232 221.971 113.591 217.801 125.855 210.176C126.18 209.952 126.47 209.69 126.719 209.396C166.772 162.139 139.905 58.9881 138.741 54.6198ZM70.7933 72.1527C70.8025 69.547 71.8758 67.0372 73.8055 65.1093C75.7351 63.1814 78.3837 61.9725 81.2383 61.7169V51.2337C81.2383 50.6745 81.4828 50.1382 81.9181 49.7428C82.3534 49.3474 82.9437 49.1252 83.5593 49.1252C84.1749 49.1252 84.7653 49.3474 85.2006 49.7428C85.6359 50.1382 85.8804 50.6745 85.8804 51.2337V61.7169C88.735 61.9725 91.3836 63.1814 93.3132 65.1093C95.2429 67.0372 96.3162 69.547 96.3254 72.1527V109.537C96.3218 112.332 95.0979 115.011 92.9222 116.988C90.7466 118.964 87.7968 120.076 84.7199 120.079H82.3988C79.3219 120.076 76.3721 118.964 74.1965 116.988C72.0208 115.011 70.7969 112.332 70.7933 109.537V72.1527ZM78.5182 146.84C78.3763 147.085 78.1826 147.302 77.9481 147.479C77.7137 147.656 77.4432 147.789 77.152 147.871C76.8608 147.953 76.5547 147.982 76.2513 147.956C75.9478 147.93 75.6529 147.85 75.3834 147.721L40.3198 130.921C39.7767 130.66 39.37 130.213 39.1889 129.68C39.0078 129.146 39.0671 128.569 39.3537 128.075C39.6404 127.582 40.1311 127.211 40.718 127.046C41.305 126.88 41.9403 126.933 42.4845 127.192L77.5481 143.992C77.8177 144.121 78.0568 144.297 78.2515 144.51C78.4462 144.723 78.5928 144.969 78.683 145.233C78.7731 145.498 78.8049 145.776 78.7766 146.051C78.7484 146.327 78.6605 146.595 78.5182 146.84ZM85.8804 193.122C85.8804 193.681 85.6359 194.218 85.2006 194.613C84.7653 195.008 84.1749 195.231 83.5593 195.231C82.9437 195.231 82.3534 195.008 81.9181 194.613C81.4828 194.218 81.2383 193.681 81.2383 193.122V159.522C81.2383 158.962 81.4828 158.426 81.9181 158.031C82.3534 157.635 82.9437 157.413 83.5593 157.413C84.1749 157.413 84.7653 157.635 85.2006 158.031C85.6359 158.426 85.8804 158.962 85.8804 159.522V193.122ZM130.145 130.921L95.081 147.721C94.5366 147.982 93.9005 148.035 93.3126 147.87C92.7247 147.705 92.2332 147.334 91.9461 146.84C91.6591 146.345 91.6 145.767 91.782 145.233C91.9639 144.699 92.3719 144.253 92.9163 143.992L127.98 127.192C128.524 126.933 129.159 126.881 129.745 127.047C130.332 127.213 130.822 127.583 131.109 128.076C131.395 128.57 131.455 129.146 131.274 129.68C131.093 130.213 130.687 130.659 130.145 130.921Z" fill="#151514"/>
</svg>
