<svg width="27" height="24" viewBox="0 0 27 24" fill="none" xmlns="http://www.w3.org/2000/svg">
<path d="M26.1488 14.8874C26.9852 9.61914 26.4279 6.42194 24.3932 4.82601C23.9651 4.49151 23.4905 4.22429 22.9841 4.03271C22.316 3.77626 21.6691 3.7226 20.9846 3.6662C20.1596 3.59843 19.2225 3.52141 17.9941 3.04985C16.7656 2.57829 16.017 2.0088 15.3571 1.50661C14.8104 1.08982 14.2942 0.696981 13.6281 0.441279C13.1062 0.23876 12.5574 0.112873 11.9977 0.0672289C9.43106 -0.106609 6.8789 1.8958 3.95965 6.36633C0.819098 11.1774 0.103202 14.7013 1.93731 16.2867C2.18798 16.506 2.4738 16.6792 2.78283 16.799C4.24129 17.3588 5.89697 16.5412 7.09415 15.8111C8.44759 14.9842 9.73309 14.7945 13.0038 16.05C15.9251 17.1713 16.9755 18.0485 17.4993 19.8053C17.8284 20.9097 18.2198 21.7443 18.6946 22.3573C19.3261 23.1721 20.1061 23.5986 21.0146 23.6191C22.4446 23.6545 23.62 22.7482 24.509 20.9245C25.1896 19.5257 25.7262 17.5511 26.1488 14.8874ZM12.8468 9.4677L11.2875 8.86913L10.6634 10.4948C10.5807 10.7104 10.4192 10.8856 10.2144 10.982C10.0097 11.0783 9.77853 11.0878 9.57175 11.0084C9.36497 10.929 9.19953 10.7673 9.11183 10.5587C9.02413 10.3501 9.02136 10.1119 9.10411 9.89627L9.72816 8.27055L8.16883 7.67198C7.96205 7.59261 7.79661 7.43084 7.70891 7.22228C7.62121 7.01371 7.61844 6.77542 7.70119 6.55984C7.78394 6.34426 7.94545 6.16904 8.15019 6.07272C8.35492 5.97641 8.5861 5.9669 8.79288 6.04627L10.3522 6.64484L10.9763 5.01913C11.059 4.80355 11.2205 4.62833 11.4253 4.53201C11.63 4.4357 11.8612 4.42618 12.068 4.50556C12.2747 4.58494 12.4402 4.7467 12.5279 4.95527C12.6156 5.16383 12.6184 5.40212 12.5356 5.6177L11.9115 7.24341L13.4709 7.84199C13.6777 7.92136 13.8431 8.08313 13.9308 8.29169C14.0185 8.50026 14.0213 8.73855 13.9385 8.95413C13.8558 9.16971 13.6943 9.34493 13.4895 9.44125C13.2848 9.53756 13.0536 9.54707 12.8468 9.4677ZM16.8621 11.2422C16.6693 11.1682 16.5038 11.0363 16.3864 10.8631C16.2689 10.6899 16.2049 10.4833 16.2024 10.2693C16.2 10.0553 16.2591 9.84361 16.3723 9.66095C16.4856 9.47829 16.6479 9.33287 16.8388 9.24309C17.0296 9.15331 17.2404 9.1232 17.4445 9.15656C17.6486 9.18993 17.8368 9.28527 17.9854 9.43053C18.134 9.5758 18.2362 9.76445 18.2791 9.97265C18.3221 10.1809 18.3038 10.3992 18.2267 10.6002C18.1232 10.8697 17.9214 11.0887 17.6654 11.2091C17.4095 11.3295 17.1205 11.3414 16.8621 11.2422V11.2422ZM18.1481 14.3006C17.9552 14.2265 17.7896 14.0945 17.6722 13.9212C17.5548 13.7479 17.4908 13.5411 17.4885 13.327C17.4861 13.1129 17.5454 12.9011 17.6589 12.7185C17.7724 12.5358 17.9349 12.3905 18.126 12.3009C18.317 12.2113 18.528 12.1815 18.7321 12.2152C18.9363 12.2489 19.1245 12.3447 19.2728 12.4903C19.4212 12.6359 19.5231 12.8249 19.5656 13.0333C19.6081 13.2418 19.5894 13.4602 19.5117 13.6611C19.4078 13.9299 19.2059 14.1482 18.9502 14.2681C18.6946 14.3879 18.4061 14.3996 18.1481 14.3006V14.3006ZM19.8642 9.82985C19.6715 9.75585 19.5059 9.62393 19.3885 9.45076C19.2711 9.27759 19.2071 9.07096 19.2046 8.85698C19.2021 8.643 19.2612 8.43129 19.3745 8.24863C19.4878 8.06597 19.6501 7.92055 19.8409 7.83077C20.0318 7.74099 20.2426 7.71088 20.4467 7.74424C20.6508 7.77761 20.839 7.87295 20.9876 8.01821C21.1361 8.16348 21.2383 8.35214 21.2813 8.56034C21.3242 8.76854 21.306 8.98692 21.2288 9.18788C21.1254 9.45736 20.9235 9.67639 20.6676 9.79678C20.4117 9.91717 20.1227 9.92906 19.8642 9.82985ZM21.1502 12.8882C20.9575 12.8142 20.7919 12.6823 20.6745 12.5092C20.5571 12.336 20.4931 12.1293 20.4906 11.9154C20.4881 11.7014 20.5472 11.4897 20.6605 11.307C20.7738 11.1244 20.9361 10.9789 21.1269 10.8892C21.3178 10.7994 21.5286 10.7693 21.7327 10.8026C21.9368 10.836 22.125 10.9313 22.2736 11.0766C22.4221 11.2219 22.5243 11.4105 22.5673 11.6187C22.6102 11.8269 22.592 12.0453 22.5149 12.2463C22.4114 12.5158 22.2095 12.7348 21.9536 12.8552C21.6977 12.9756 21.4087 12.9875 21.1502 12.8882V12.8882Z" fill="#DA254C"/>
</svg>
