<svg width="16" height="9" viewBox="0 0 16 9" fill="none" xmlns="http://www.w3.org/2000/svg">
<path d="M2.71992 0.533442H0.746582V8.00011H1.82392V5.37611H2.71992C4.18125 5.37611 5.01325 4.51211 5.01325 2.94411C5.01325 1.41878 4.18125 0.533442 2.71992 0.533442ZM2.70925 4.35211H1.82392V1.55744H2.70925C3.51992 1.55744 3.91458 2.02678 3.91458 2.94411C3.91458 3.90411 3.51992 4.35211 2.70925 4.35211Z" fill="white"/>
<path d="M7.80767 8.13878C9.205 8.13878 9.98367 7.18944 9.98367 6.08011C9.98367 3.76544 6.84767 3.76544 6.84767 2.30411C6.84767 1.77078 7.19967 1.42944 7.80767 1.42944C8.38367 1.42944 8.757 1.77078 8.77833 2.48544H9.877C9.845 1.21611 9.077 0.394775 7.797 0.394775C6.53833 0.394775 5.749 1.20544 5.749 2.28278C5.749 4.50144 8.87433 4.58678 8.87433 6.06944C8.87433 6.66678 8.52233 7.09344 7.80767 7.09344C7.14633 7.09344 6.73033 6.72011 6.71967 5.95211H5.621C5.63167 7.31744 6.485 8.13878 7.80767 8.13878Z" fill="white"/>
<path d="M14.1338 0.533442V3.71211H12.0218V0.533442H10.9445V8.00011H12.0218V4.72544H14.1338V8.00011H15.2112V0.533442H14.1338Z" fill="white"/>
</svg>
