<svg width="104" height="165" viewBox="0 0 104 165" fill="none" xmlns="http://www.w3.org/2000/svg">
<path d="M93.6 0L10.4 0C4.6644 0 0 4.62 0 10.3125L0 154.688C0 160.385 4.6592 165 10.4 165H93.6C99.346 165 104 160.385 104 154.688V10.3125C104 4.62516 99.346 0 93.6 0ZM46.8 10.3125H57.2C60.0652 10.3125 62.4 12.6225 62.4 15.4687C62.4 18.315 60.0652 20.625 57.2 20.625H46.8C43.9296 20.625 41.6 18.315 41.6 15.4687C41.6 12.6225 43.9296 10.3125 46.8 10.3125ZM57.2 154.688H46.8C43.9296 154.688 41.6 152.372 41.6 149.531C41.6 146.69 43.9296 144.375 46.8 144.375H57.2C60.0652 144.375 62.4 146.69 62.4 149.531C62.4 152.372 60.0652 154.688 57.2 154.688ZM93.6 134.062H10.4L10.4 30.9375L93.6 30.9375V134.062Z" fill="#151514"/>
</svg>
