<svg version="1.1" id="Calque_1" xmlns="http://www.w3.org/2000/svg" xmlns:xlink="http://www.w3.org/1999/xlink" x="0px" y="0px"
	 viewBox="0 0 16 15" style="enable-background:new 0 0 16 15;" xml:space="preserve">
<path fill="#ffffff" class="st0" d="M8.1,1c0.6,0,2.5,0.2,3.4,2.2c0.3,0.7,0.2,1.9,0.2,2.8l0,0c0,0.1,0,0.2,0,0.3c0.1,0,0.2,0.1,0.2,0.1
	c0.2,0,0.4-0.1,0.6-0.2c0.1,0,0.2-0.1,0.3-0.1c0.1,0,0.2,0,0.3,0.1c0.3,0.1,0.4,0.3,0.4,0.5c0,0.3-0.2,0.5-0.7,0.7
	c-0.1,0-0.1,0-0.2,0.1c-0.3,0.1-0.7,0.2-0.8,0.5c-0.1,0.1,0,0.3,0.1,0.5l0,0c0,0.1,0.9,2,2.8,2.3c0.1,0,0.1,0,0.2,0.1
	c0,0.1,0.1,0.1,0.1,0.2c0,0,0,0.1,0,0.1c-0.1,0.3-0.7,0.6-1.8,0.7c0,0.1-0.1,0.2-0.1,0.3c0,0.1,0,0.2-0.1,0.3c0,0.2-0.2,0.2-0.3,0.2
	h0c-0.1,0-0.2,0-0.3,0c-0.2-0.1-0.5-0.1-0.7-0.1c-0.2,0-0.3,0-0.5,0c-0.3,0.1-0.7,0.3-1,0.5C9.5,13.6,9,14,8.1,14c0,0-0.1,0-0.1,0
	H7.9c-0.9,0-1.4-0.4-1.9-0.7c-0.3-0.2-0.6-0.5-1-0.5c-0.2,0-0.4,0-0.5,0c-0.3,0-0.6,0.1-0.7,0.1c-0.1,0-0.2,0-0.3,0
	c-0.1,0-0.2,0-0.2-0.1c-0.1,0-0.1-0.1-0.1-0.2c0-0.1-0.1-0.2-0.1-0.3C3,12.2,3,12,2.9,11.9c-1.1-0.1-1.7-0.4-1.8-0.7
	c0,0,0-0.1,0-0.1c0-0.1,0-0.1,0.1-0.2c0-0.1,0.1-0.1,0.2-0.1C3.2,10.5,4,8.5,4.1,8.5l0,0c0.1-0.2,0.1-0.4,0.1-0.5
	C4,7.7,3.6,7.5,3.4,7.5c-0.1,0-0.1,0-0.2-0.1C2.5,7.1,2.4,6.8,2.5,6.6c0.1-0.3,0.4-0.5,0.7-0.5c0.1,0,0.2,0,0.2,0
	C3.6,6.3,3.8,6.4,4,6.4c0.1,0,0.2,0,0.3-0.1l0-0.3C4.2,5.1,4.1,3.9,4.4,3.2C5.3,1.1,7.3,1,7.8,1L8.1,1L8.1,1z"/>
</svg>
