<svg width="9" height="14" viewBox="0 0 9 14" fill="none" xmlns="http://www.w3.org/2000/svg">
<path d="M3.77387 9.05618C3.77387 8.63684 3.84187 8.26851 3.97787 7.95118C4.11387 7.63384 4.28954 7.35051 4.50487 7.10118C4.7202 6.85184 4.94687 6.61951 5.18487 6.40418C5.4342 6.18884 5.66654 5.97918 5.88187 5.77518C6.0972 5.57118 6.27287 5.35584 6.40887 5.12918C6.54487 4.90251 6.61287 4.64751 6.61287 4.36418C6.61287 3.88818 6.42021 3.50284 6.03487 3.20818C5.64954 2.91351 5.13387 2.76618 4.48787 2.76618C3.86454 2.76618 3.32054 2.87951 2.85587 3.10618C2.40254 3.33284 2.02287 3.65584 1.71687 4.07518L0.0678711 3.00418C0.543871 2.35818 1.1672 1.85384 1.93787 1.49118C2.70854 1.11718 3.62087 0.930176 4.67487 0.930176C5.5022 0.930176 6.22754 1.05484 6.85087 1.30418C7.4742 1.54218 7.96154 1.89351 8.31287 2.35818C8.66421 2.81151 8.83987 3.36684 8.83987 4.02418C8.83987 4.47751 8.76621 4.87418 8.61887 5.21418C8.48287 5.55418 8.30154 5.85451 8.07487 6.11518C7.85954 6.36451 7.62721 6.60251 7.37787 6.82918C7.12854 7.04451 6.89054 7.25984 6.66387 7.47518C6.44854 7.69051 6.27287 7.92284 6.13687 8.17218C6.00087 8.42151 5.93287 8.71618 5.93287 9.05618H3.77387ZM4.86187 13.1192C4.4652 13.1192 4.13654 12.9888 3.87587 12.7282C3.62654 12.4675 3.50187 12.1558 3.50187 11.7932C3.50187 11.4305 3.62654 11.1245 3.87587 10.8752C4.13654 10.6145 4.4652 10.4842 4.86187 10.4842C5.25854 10.4842 5.58154 10.6145 5.83087 10.8752C6.0802 11.1245 6.20487 11.4305 6.20487 11.7932C6.20487 12.1558 6.0802 12.4675 5.83087 12.7282C5.58154 12.9888 5.25854 13.1192 4.86187 13.1192Z" fill="#DA254C"/>
</svg>
