<svg width="22" height="28" viewBox="0 0 22 28" fill="none" xmlns="http://www.w3.org/2000/svg">
<path d="M12.519 5.2262H12.176C11.9866 5.2262 11.833 5.36569 11.833 5.53776V11.062C11.833 11.2341 11.9866 11.3736 12.176 11.3736H12.519C12.7084 11.3736 12.862 11.2341 12.862 11.062V5.53776C12.862 5.36569 12.7084 5.2262 12.519 5.2262Z" fill="#DA254C"/>
<path d="M20.5016 2.9475C20.474 2.8437 20.4175 2.7481 20.3375 2.66986C20.2575 2.59162 20.1567 2.53337 20.0448 2.50068L12.6019 0.328844C12.4654 0.288986 12.3186 0.288986 12.1822 0.328844L4.73948 2.50068C4.61589 2.53676 4.5061 2.60396 4.42288 2.69447C4.33967 2.78499 4.28644 2.89509 4.26938 3.012C3.83859 5.95781 3.56043 8.68064 3.43819 11.1176C2.79971 11.652 0.389788 13.9154 0.00264905 17.9349C-0.00522772 18.0161 0.00450253 18.0979 0.0312884 18.1756C0.106169 18.3927 1.90645 23.4843 6.31889 25.728C6.41873 25.8158 6.52797 25.8943 6.645 25.9623C8.33002 27.0845 10.3622 27.6944 12.4515 27.7052C14.6473 27.6768 16.7852 27.0606 18.5975 25.9339C18.6454 25.9008 18.6884 25.862 18.7251 25.8186C24.6438 18.8356 20.6736 3.59299 20.5016 2.9475ZM10.4611 5.53831C10.4624 5.15327 10.621 4.7824 10.9062 4.49751C11.1913 4.21262 11.5827 4.03399 12.0045 3.99622V2.44713C12.0045 2.3645 12.0406 2.28525 12.105 2.22682C12.1693 2.16839 12.2565 2.13557 12.3475 2.13557C12.4384 2.13557 12.5257 2.16839 12.59 2.22682C12.6543 2.28525 12.6905 2.3645 12.6905 2.44713V3.99622C13.1123 4.03399 13.5037 4.21262 13.7888 4.49751C14.0739 4.7824 14.2326 5.15327 14.2339 5.53831V11.0625C14.2334 11.4755 14.0525 11.8715 13.731 12.1635C13.4095 12.4556 12.9736 12.6199 12.519 12.6204H12.176C11.7213 12.6199 11.2854 12.4556 10.9639 12.1635C10.6424 11.8715 10.4616 11.4755 10.4611 11.0625V5.53831ZM11.6026 16.5747C11.5816 16.6109 11.553 16.643 11.5183 16.6692C11.4837 16.6953 11.4437 16.715 11.4007 16.7271C11.3576 16.7392 11.3124 16.7435 11.2676 16.7397C11.2227 16.7359 11.1791 16.7241 11.1393 16.705L5.95802 14.2225C5.87777 14.1838 5.81767 14.1179 5.7909 14.039C5.76414 13.9602 5.7729 13.8749 5.81526 13.802C5.85763 13.729 5.93013 13.6742 6.01687 13.6498C6.1036 13.6253 6.19748 13.6331 6.2779 13.6714L11.4592 16.1539C11.4991 16.173 11.5344 16.199 11.5631 16.2305C11.5919 16.2619 11.6136 16.2983 11.6269 16.3373C11.6402 16.3764 11.6449 16.4175 11.6407 16.4582C11.6366 16.499 11.6236 16.5386 11.6026 16.5747ZM12.6905 23.4138C12.6905 23.4965 12.6543 23.5757 12.59 23.6341C12.5257 23.6926 12.4384 23.7254 12.3475 23.7254C12.2565 23.7254 12.1693 23.6926 12.105 23.6341C12.0406 23.5757 12.0045 23.4965 12.0045 23.4138V18.4487C12.0045 18.3661 12.0406 18.2868 12.105 18.2284C12.1693 18.17 12.2565 18.1371 12.3475 18.1371C12.4384 18.1371 12.5257 18.17 12.59 18.2284C12.6543 18.2868 12.6905 18.3661 12.6905 18.4487V23.4138ZM19.2313 14.2225L14.05 16.705C13.9696 16.7435 13.8756 16.7514 13.7887 16.727C13.7018 16.7026 13.6292 16.6478 13.5868 16.5747C13.5444 16.5017 13.5356 16.4163 13.5625 16.3374C13.5894 16.2584 13.6497 16.1925 13.7301 16.1539L18.9115 13.6714C18.9919 13.6332 19.0857 13.6255 19.1724 13.65C19.259 13.6745 19.3315 13.7292 19.3738 13.8021C19.4161 13.875 19.4249 13.9602 19.3982 14.039C19.3715 14.1178 19.3115 14.1838 19.2313 14.2225Z" fill="#DA254C"/>
</svg>
