<svg width="26" height="30" viewBox="0 0 26 30" fill="none" xmlns="http://www.w3.org/2000/svg">
<path d="M20.4835 4.71194L24.9144 6.41281C25.3144 6.56636 25.6059 6.84174 25.7888 7.23896C25.9717 7.63618 25.9883 8.0298 25.8386 8.41981L20.8636 21.3802L20.1251 21.0968C19.9251 21.02 19.7247 21.0248 19.5238 21.1112C19.3229 21.1976 19.1851 21.3383 19.1102 21.5333C19.0354 21.7283 19.0437 21.9251 19.1351 22.1237C19.2266 22.3223 19.3723 22.46 19.5723 22.5368L20.3108 22.8203L18.0997 28.5805C17.95 28.9705 17.6742 29.2519 17.2725 29.4247C16.8708 29.5975 16.4699 29.6071 16.0699 29.4536L11.639 27.7527C11.9442 26.9577 11.9163 26.1682 11.5553 25.3842C11.1943 24.6002 10.606 24.0517 9.79063 23.7387C8.97522 23.4257 8.17108 23.4397 7.37821 23.7807C6.58533 24.1218 6.03631 24.6898 5.73113 25.4849L1.30021 23.784C0.9002 23.6304 0.608737 23.3551 0.425825 22.9578C0.242913 22.5606 0.226312 22.167 0.376024 21.777L2.58715 16.0168L3.32564 16.3003C3.52564 16.3771 3.72608 16.3722 3.92694 16.2858C4.1278 16.1994 4.26566 16.0587 4.34051 15.8637C4.41537 15.6687 4.40707 15.4719 4.31561 15.2733C4.22416 15.0747 4.07843 14.937 3.87842 14.8602L3.13994 14.5768L8.11497 1.61634C8.26469 1.22633 8.5404 0.944921 8.94212 0.772122C9.34385 0.599323 9.74471 0.5897 10.1447 0.743251L14.5756 2.44412C14.2705 3.23914 14.2984 4.02865 14.6594 4.81263C15.0204 5.59662 15.6086 6.14511 16.424 6.45812C17.2394 6.77113 18.0436 6.75711 18.8364 6.41606C19.6293 6.07501 20.1783 5.50697 20.4835 4.71194ZM6.83236 15.9941C6.63236 15.9174 6.43192 15.9222 6.23106 16.0086C6.0302 16.095 5.89234 16.2357 5.81749 16.4307C5.74263 16.6257 5.75093 16.8225 5.84239 17.0211C5.93384 17.2197 6.07957 17.3574 6.27958 17.4342L7.75655 18.0012C7.95656 18.0779 8.15699 18.0731 8.35785 17.9867C8.55871 17.9003 8.69657 17.7596 8.77143 17.5646C8.84628 17.3696 8.83798 17.1728 8.74653 16.9742C8.65507 16.7756 8.50934 16.6379 8.30933 16.5611L6.83236 15.9941ZM11.2633 17.695C11.0633 17.6182 10.8628 17.6231 10.662 17.7095C10.4611 17.7959 10.3233 17.9366 10.2484 18.1316C10.1735 18.3266 10.1818 18.5234 10.2733 18.722C10.3648 18.9206 10.5105 19.0583 10.7105 19.1351L12.1875 19.702C12.3875 19.7788 12.5879 19.774 12.7888 19.6876C12.9896 19.6012 13.1275 19.4605 13.2023 19.2655C13.2772 19.0705 13.2689 18.8737 13.1774 18.6751C13.086 18.4764 12.9403 18.3387 12.7402 18.262L11.2633 17.695ZM15.6942 19.3959C15.4942 19.3191 15.2937 19.3239 15.0929 19.4103C14.892 19.4967 14.7542 19.6374 14.6793 19.8324C14.6045 20.0274 14.6128 20.2242 14.7042 20.4229C14.7957 20.6215 14.9414 20.7592 15.1414 20.8359L16.6184 21.4029C16.8184 21.4797 17.0188 21.4749 17.2197 21.3885C17.4205 21.3021 17.5584 21.1614 17.6333 20.9663C17.7081 20.7713 17.6998 20.5745 17.6084 20.3759C17.5169 20.1773 17.3712 20.0396 17.1712 19.9628L15.6942 19.3959Z" fill="#ffffff"/>
</svg>
