<svg width="21" height="18" viewBox="0 0 21 18" fill="none" xmlns="http://www.w3.org/2000/svg">
<path d="M0.626465 2.83641L0.626465 12.2929C0.626465 13.4348 1.60545 14.3613 2.8141 14.3613H12.6696L16.1329 17.9073V14.361H18.4388C19.6468 14.361 20.6265 13.4345 20.6265 12.2925V2.83641C20.6261 1.6941 19.6468 0.767944 18.4388 0.767944L2.8141 0.767944C1.60545 0.767944 0.626465 1.6941 0.626465 2.83641ZM14.5576 7.56432C14.5576 6.83018 15.1869 6.23475 15.9639 6.23475C16.7409 6.23475 17.3702 6.83018 17.3702 7.56432C17.3702 8.29908 16.7409 8.8942 15.9639 8.8942C15.1869 8.8942 14.5576 8.2994 14.5576 7.56432ZM9.21999 7.56432C9.21999 6.83018 9.84998 6.23475 10.6263 6.23475C11.4026 6.23475 12.0326 6.83018 12.0326 7.56432C12.0326 8.29908 11.4026 8.8942 10.6263 8.8942C9.84998 8.8942 9.21999 8.2994 9.21999 7.56432ZM3.88274 7.56432C3.88274 6.83018 4.51273 6.23475 5.28905 6.23475C6.06604 6.23475 6.69536 6.83018 6.69536 7.56432C6.69536 8.29908 6.06604 8.8942 5.28905 8.8942C4.5124 8.89452 3.88274 8.2994 3.88274 7.56432Z" fill="#DA254C"/>
</svg>
