<svg width="236" height="167" viewBox="0 0 236 167" fill="none" xmlns="http://www.w3.org/2000/svg">
<path d="M228.472 77.9931C217.683 32.7717 201.874 8.63546 178.706 2.04255C173.837 0.665721 168.792 -0.0221281 163.732 0.000542604C157.042 0.000542604 151.232 1.57567 145.086 3.24512C137.679 5.25883 129.265 7.54607 116.965 7.54607C104.664 7.54607 96.2008 5.26355 88.7404 3.24984C82.5568 1.57567 76.7205 0.000542604 70.0506 0.000542604C64.8171 -0.0169965 59.6134 0.668662 54.5887 2.03784C31.6715 8.60245 16.3417 32.7293 6.28218 77.9648C-4.53429 126.643 1.32244 157.377 22.7092 164.507C25.641 165.503 28.7205 166.016 31.8188 166.026C46.4223 166.026 58.018 154.269 65.9262 144.644C74.8613 133.75 85.3905 128.223 118.14 128.223C147.391 128.223 159.533 132.057 170.112 144.644C176.762 152.557 183.027 158.094 189.257 161.579C197.543 166.21 205.789 167.238 213.761 164.583C226.318 160.428 233.433 149.445 234.911 131.929C236.034 118.498 233.93 100.856 228.472 77.9931ZM94.2057 75.4559H78.5922L78.7391 90.5469C78.7586 92.5481 77.9548 94.4674 76.5046 95.8824C75.0543 97.2975 73.0764 98.0925 71.0059 98.0925C68.9354 98.0925 66.942 97.2975 65.4642 95.8824C63.9863 94.4674 63.1451 92.5481 63.1256 90.5469L62.9787 75.4559H47.3652C45.2947 75.4559 43.3013 74.6609 41.8235 73.2458C40.3456 71.8308 39.5044 69.9115 39.4849 67.9103C39.4655 65.9091 40.2693 63.9899 41.7195 62.5748C43.1698 61.1598 45.1477 60.3648 47.2182 60.3648H62.8317L62.6848 45.2737C62.6653 43.2725 63.4691 41.3533 64.9193 39.9382C66.3696 38.5232 68.3475 37.7282 70.418 37.7282C72.4885 37.7282 74.4819 38.5232 75.9598 39.9382C77.4376 41.3533 78.2788 43.2725 78.2983 45.2737L78.4452 60.3648H94.0587C96.1292 60.3648 98.1226 61.1598 99.6005 62.5748C101.078 63.9899 101.919 65.9091 101.939 67.9103C101.958 69.9115 101.155 71.8308 99.7044 73.2458C98.2541 74.6609 96.2762 75.4559 94.2057 75.4559ZM135.21 77.3422C133.279 77.3422 131.387 76.7891 129.773 75.7527C128.158 74.7163 126.893 73.2432 126.137 71.5198C125.382 69.7963 125.17 67.8999 125.529 66.0703C125.888 64.2406 126.801 62.56 128.152 61.241C129.504 59.9219 131.234 59.0236 133.124 58.6596C135.013 58.2957 136.977 58.4825 138.767 59.1964C140.557 59.9103 142.093 61.1192 143.18 62.6702C144.268 64.2213 144.858 66.0449 144.876 67.9103C144.9 70.4118 143.896 72.8109 142.083 74.5797C140.27 76.3485 137.798 77.3422 135.21 77.3422ZM156.88 98.0925C154.949 98.0925 153.056 97.5387 151.441 96.5012C149.825 95.4638 148.56 93.9893 147.805 92.2645C147.051 90.5397 146.841 88.642 147.201 86.8118C147.562 84.9815 148.477 83.301 149.832 81.9828C151.186 80.6647 152.918 79.7683 154.809 79.407C156.7 79.0457 158.665 79.2359 160.455 79.9534C162.245 80.6709 163.779 81.8835 164.863 83.4376C165.948 84.9918 166.534 86.8177 166.547 88.6841C166.565 91.1815 165.557 93.5745 163.745 95.3383C161.933 97.102 159.464 98.0925 156.88 98.0925ZM156.476 56.592C154.546 56.592 152.654 56.0389 151.039 55.0025C149.424 53.9661 148.159 52.493 147.404 50.7696C146.648 49.0461 146.437 47.1497 146.795 45.32C147.154 43.4904 148.067 41.8098 149.419 40.4907C150.771 39.1717 152.501 38.2734 154.39 37.9094C156.28 37.5455 158.244 37.7323 160.034 38.4462C161.824 39.1601 163.36 40.369 164.447 41.92C165.534 43.4711 166.124 45.2947 166.143 47.1601C166.167 49.6616 165.162 52.0607 163.349 53.8295C161.537 55.5983 159.064 56.592 156.476 56.592ZM178.147 77.3422C176.217 77.3422 174.325 76.7891 172.71 75.7527C171.095 74.7163 169.83 73.2432 169.074 71.5198C168.319 69.7963 168.107 67.8999 168.466 66.0703C168.825 64.2406 169.738 62.56 171.09 61.241C172.441 59.9219 174.172 59.0236 176.061 58.6596C177.95 58.2957 179.914 58.4825 181.704 59.1964C183.494 59.9103 185.03 61.1192 186.118 62.6702C187.205 64.2213 187.795 66.0449 187.813 67.9103C187.838 70.4118 186.833 72.8109 185.02 74.5797C183.207 76.3485 180.735 77.3422 178.147 77.3422Z" fill="#151514"/>
</svg>
