<svg width="25" height="22" viewBox="0 0 25 22" fill="none" xmlns="http://www.w3.org/2000/svg">
<path d="M12.5935 21.5906C13.5529 21.5906 14.3306 20.8495 14.3306 19.9352C14.3306 19.0209 13.5529 18.2797 12.5935 18.2797C11.6342 18.2797 10.8564 19.0209 10.8564 19.9352C10.8564 20.8495 11.6342 21.5906 12.5935 21.5906Z" fill="#E50051"/>
<path d="M20.5896 21.5906C21.549 21.5906 22.3267 20.8495 22.3267 19.9352C22.3267 19.0209 21.549 18.2797 20.5896 18.2797C19.6302 18.2797 18.8525 19.0209 18.8525 19.9352C18.8525 20.8495 19.6302 21.5906 20.5896 21.5906Z" fill="#E50051"/>
<path d="M22.7122 6.61853H21.6645C21.7472 6.25083 21.8023 5.85687 21.8023 5.46291C21.8023 2.44255 19.2381 0 16.0673 0C12.8689 0 10.3046 2.44255 10.3046 5.46291C10.3046 5.85687 10.3598 6.25083 10.4425 6.61853H8.59516L8.04371 3.23047C8.04371 3.20421 8.04371 3.17795 8.04371 3.17795C7.76798 2.12738 6.77538 1.36573 5.64491 1.36573H1.48147C1.01274 1.36573 0.654297 1.70716 0.654297 2.15365C0.654297 2.60014 1.01274 2.94157 1.48147 2.94157H5.61733C6.00335 2.94157 6.30664 3.17795 6.41693 3.51938L8.37458 15.3644C8.40215 16.6251 9.50505 17.6494 10.8561 17.6494H22.988C23.4567 17.6494 23.8151 17.308 23.8151 16.8615C23.8151 16.415 23.4567 16.0736 22.988 16.0736H10.8561C10.3874 16.0736 10.0289 15.7321 10.0289 15.2857C10.0289 15.2331 10.0289 15.2069 10.0289 15.1543L9.86349 14.2351H22.7122C23.6221 14.2351 24.3666 13.526 24.3666 12.6593V8.19437C24.3666 7.32766 23.6221 6.61853 22.7122 6.61853ZM16.0397 9.34999C13.7788 9.34999 11.959 7.5903 11.959 5.46291C11.959 3.30927 13.8063 1.57584 16.0397 1.57584C18.3006 1.57584 20.1204 3.33553 20.1204 5.46291C20.148 7.61656 18.3006 9.34999 16.0397 9.34999Z" fill="#E50051"/>
<path d="M17.4462 4.67596L16.8948 5.2015V3.51976C16.8948 3.07305 16.5363 2.73145 16.0676 2.73145C15.5989 2.73145 15.2404 3.07305 15.2404 3.51976V5.30661L14.5511 4.67596C14.2203 4.38691 13.6964 4.38691 13.3931 4.70223C13.0898 5.01756 13.0898 5.51683 13.4207 5.80588L15.5162 7.67156C15.5437 7.69783 15.5437 7.69783 15.5713 7.69783C15.5989 7.72411 15.5989 7.72411 15.6264 7.75039C15.654 7.77667 15.6816 7.77667 15.7092 7.80294C15.7367 7.80294 15.7367 7.82922 15.7643 7.82922C15.7919 7.82922 15.8195 7.8555 15.847 7.8555C15.8746 7.8555 15.8746 7.8555 15.9022 7.88177C15.9573 7.88177 16.0125 7.90805 16.0676 7.90805C16.1228 7.90805 16.1779 7.90805 16.233 7.88177C16.2606 7.88177 16.2882 7.8555 16.3158 7.8555C16.3433 7.8555 16.3709 7.82922 16.3985 7.82922C16.426 7.82922 16.4536 7.80294 16.4812 7.77667C16.5088 7.77667 16.5088 7.75039 16.5363 7.75039C16.5915 7.72411 16.6191 7.69783 16.6742 7.64528L18.6318 5.7796C18.9627 5.46427 18.9627 4.96501 18.6318 4.67596C18.301 4.38691 17.7771 4.38691 17.4462 4.67596Z" fill="#E50051"/>
</svg>
