<svg width="17" height="15" viewBox="0 0 17 15" fill="none" xmlns="http://www.w3.org/2000/svg">
<path fill-rule="evenodd" clip-rule="evenodd" d="M3.44527 2.872C3.72716 2.87317 3.99796 2.75662 4.19815 2.54796C4.39835 2.33931 4.51156 2.05562 4.51291 1.75925C4.51156 1.46287 4.39835 1.17919 4.19815 0.970533C3.99796 0.761878 3.72716 0.645327 3.44527 0.646493C3.30576 0.645916 3.1675 0.674244 3.03841 0.729859C2.90931 0.785474 2.7919 0.867286 2.69288 0.970622C2.59386 1.07396 2.51518 1.19679 2.46133 1.33211C2.40748 1.46742 2.37951 1.61257 2.37902 1.75925C2.38013 2.05545 2.49307 2.33906 2.69302 2.54773C2.89296 2.7564 3.16355 2.87304 3.44527 2.872ZM9.55271 2.78065C9.42523 2.83624 9.28858 2.86488 9.15056 2.86495C8.87183 2.86508 8.60447 2.74878 8.40729 2.54164C8.21012 2.3345 8.09927 2.05349 8.09915 1.76043C8.09903 1.46736 8.20963 1.18624 8.40664 0.978923C8.60364 0.771602 8.87091 0.655058 9.14964 0.654929C9.28765 0.654865 9.42432 0.683383 9.55185 0.738856C9.67938 0.794329 9.79527 0.87567 9.89291 0.978234C9.99054 1.0808 10.068 1.20258 10.1209 1.33662C10.1737 1.47066 10.201 1.61434 10.201 1.75945C10.2011 1.90456 10.174 2.04827 10.1212 2.18236C10.0685 2.31645 9.99111 2.4383 9.89356 2.54095C9.79602 2.64361 9.68019 2.72506 9.55271 2.78065ZM14.71 7.08472C14.6184 7.12269 14.5205 7.141 14.422 7.13857C14.2295 7.13383 14.0464 7.05018 13.9118 6.90549C13.7771 6.76079 13.7016 6.5665 13.7013 6.36407C13.701 6.16164 13.7759 5.9671 13.9102 5.82196C14.0444 5.67682 14.2272 5.59257 14.4197 5.58719C14.5181 5.58444 14.6161 5.60242 14.7078 5.64009C14.7995 5.67776 14.8832 5.73434 14.9538 5.80651C15.0244 5.87868 15.0805 5.96498 15.1189 6.06031C15.1573 6.15565 15.1772 6.2581 15.1773 6.36163C15.1775 6.46516 15.1579 6.56768 15.1198 6.66314C15.0817 6.75861 15.0258 6.84509 14.9554 6.91749C14.8851 6.98989 14.8016 7.04675 14.71 7.08472ZM13.5499 14.1533C13.4683 14.0681 13.422 13.9524 13.4211 13.8315L13.4221 13.832V8.39072L12.3637 8.07927C12.1797 8.02078 12.0081 7.85117 11.9604 7.67717L11.2015 4.77717H10.8023V13.5522C10.7961 13.7201 10.7284 13.8788 10.6133 13.9953C10.4981 14.1117 10.3446 14.1768 10.1848 14.1768C10.0251 14.1768 9.87155 14.1117 9.75642 13.9953C9.64129 13.8788 9.57353 13.7201 9.56734 13.5522V8.55984H9.11164V13.5522C9.10723 13.7215 9.04016 13.8823 8.92471 14.0004C8.80925 14.1185 8.65453 14.1846 8.49344 14.1846C8.33236 14.1846 8.17763 14.1185 8.06218 14.0004C7.94673 13.8823 7.87966 13.7215 7.87525 13.5522V4.77717H7.50763L6.69032 7.77709C6.63655 7.97594 6.42701 8.13776 6.22164 8.11924C6.01627 8.13727 5.84242 7.97643 5.78679 7.77709L4.97042 4.77717H4.57127L5.75481 9.96988H4.71684V13.6585C4.71684 13.8046 4.66164 13.9446 4.5634 14.0479C4.46516 14.1512 4.33192 14.2092 4.19298 14.2092C4.05405 14.2092 3.9208 14.1512 3.82256 14.0479C3.72432 13.9446 3.66913 13.8046 3.66913 13.6585V9.96988H3.22733V13.6585C3.22733 13.9626 2.9909 14.2092 2.70116 14.2092C2.41188 14.2092 2.1787 13.9626 2.1787 13.6585V9.96988H1.12358L2.31778 4.77717H1.91863L1.10318 7.77709C1.0392 8.00665 0.778205 8.18114 0.538995 8.10998C0.300711 8.03736 0.166735 7.76929 0.246935 7.48221L1.08695 4.40529C1.42259 3.17559 2.40122 3.21458 2.40122 3.21458H4.48829C4.48829 3.21458 5.46738 3.17559 5.80302 4.40529L6.23879 6.00199L6.67456 4.40529C7.0102 3.17559 7.98929 3.21458 7.98929 3.21458L10.6869 3.21458C10.6869 3.21458 11.666 3.17559 12.0016 4.40529L12.8338 7.45443L13.4814 7.52023C13.4897 7.51925 15.4906 7.51779 15.4906 7.51779C16.0107 7.51779 16.4706 7.96278 16.4706 8.51159V10.4714C16.471 10.5158 16.4631 10.5598 16.4473 10.6009C16.4315 10.6421 16.408 10.6795 16.3784 10.7111C16.3488 10.7426 16.3135 10.7677 16.2745 10.7849C16.2356 10.8021 16.1939 10.811 16.1517 10.8111C15.9741 10.8111 15.8299 10.6591 15.8299 10.4714V8.74749H15.4952V13.8315C15.4946 13.9523 15.4485 14.068 15.367 14.1532C15.2856 14.2384 15.1753 14.2863 15.0604 14.2862C14.8212 14.2862 14.6274 14.082 14.6274 13.8315V11.1118H14.289V13.8315C14.2888 13.952 14.2433 14.0675 14.1623 14.1527C14.0813 14.238 13.9715 14.286 13.8569 14.2862C13.7419 14.2863 13.6315 14.2385 13.5499 14.1533Z" fill="white"/>
</svg>
