<svg width="22" height="21" viewBox="0 0 22 21" fill="none" xmlns="http://www.w3.org/2000/svg">
<path d="M10.938 0.185547C4.90481 0.185547 0 4.85232 0 10.5927C0 16.333 4.90481 20.9998 10.938 20.9998C16.9711 20.9998 21.8759 16.333 21.8759 10.5927C21.8759 4.85232 16.9711 0.185547 10.938 0.185547ZM11.9281 8.6427C12.0433 8.6427 12.1124 8.73034 12.1124 8.81798V9.7601C12.1124 9.86965 12.0202 9.93538 11.9281 9.93538H8.42799C8.40496 10.1545 8.38193 10.3736 8.38193 10.5927C8.38193 10.8118 8.40496 11.009 8.42799 11.2281H11.9281C12.0433 11.2281 12.1124 11.3157 12.1124 11.4033V12.3454C12.1124 12.455 12.0202 12.5207 11.9281 12.5207H8.8655C9.46421 13.66 10.5695 14.4488 11.836 14.4488C12.642 14.4488 13.4249 14.1201 14.0466 13.5505C14.1157 13.4848 14.2309 13.4848 14.2999 13.5505L15.4053 14.5145C15.4743 14.5802 15.4974 14.7117 15.4053 14.7774C14.4151 15.7195 13.1486 16.2454 11.836 16.2454C9.55632 16.2454 7.599 14.6898 6.8391 12.5207H5.54958C5.43444 12.5207 5.36536 12.4331 5.36536 12.3454V11.4033C5.36536 11.2938 5.45747 11.2281 5.54958 11.2281H6.53975C6.51672 11.009 6.49369 10.8118 6.49369 10.5927C6.49369 10.3736 6.51672 10.1545 6.53975 9.95729H5.54958C5.43444 9.95729 5.36536 9.86965 5.36536 9.78201V8.83989C5.36536 8.73034 5.45747 8.66461 5.54958 8.66461H6.8391C7.599 6.49555 9.5333 4.93996 11.836 4.93996C13.1716 4.93996 14.4381 5.46579 15.4053 6.40791C15.4743 6.47364 15.4743 6.6051 15.4053 6.67083L14.2999 7.63486C14.2309 7.70058 14.1157 7.70058 14.0466 7.63486C13.4249 7.04329 12.642 6.71465 11.836 6.71465C10.5695 6.71465 9.46421 7.48149 8.8655 8.6427H11.9281V8.6427Z" fill="#E50051"/>
</svg>
