<svg width="27" height="24" viewBox="0 0 27 24" fill="none" xmlns="http://www.w3.org/2000/svg">
<path fill-rule="evenodd" clip-rule="evenodd" d="M14.0227 21.2231L17.3916 23.0884C17.7763 23.3016 18.2171 23.2703 18.5684 23.0045C18.9196 22.7388 19.081 22.3164 18.9974 21.8759L18.2889 18.1272C18.2142 17.7311 18.3342 17.3542 18.6225 17.0804L21.6913 14.1592C22.0062 13.8591 22.1213 13.4297 21.9993 13.0073C21.8773 12.5839 21.5546 12.2879 21.1305 12.2121L17.1073 11.4927C16.7589 11.43 16.4844 11.2249 16.3201 10.9026L14.4762 7.2933C14.2804 6.91035 13.9203 6.68704 13.4992 6.68704C13.0781 6.68704 12.718 6.91136 12.5222 7.2933L10.6783 10.9026C10.514 11.2249 10.2395 11.43 9.89118 11.4927L5.86792 12.2121C5.44483 12.2879 5.12112 12.5839 4.99912 13.0073C4.87711 13.4307 4.99223 13.8591 5.30708 14.1592L8.37593 17.0804C8.66422 17.3552 8.78426 17.7311 8.70948 18.1272L8.00106 21.8759C7.91743 22.3154 8.07879 22.7388 8.43005 23.0045C8.78131 23.2703 9.22309 23.3016 9.60682 23.0884L12.9758 21.2231C13.3123 21.0362 13.6852 21.0362 14.0227 21.2231ZM5.68393 2.94743C5.51469 2.64733 5.61407 2.26337 5.90629 2.09059C6.19852 1.91679 6.57241 2.01884 6.74164 2.31894L8.14078 4.80865C8.31001 5.10774 8.20965 5.49271 7.91841 5.6655C7.62619 5.83929 7.2523 5.73623 7.08306 5.43714L5.68393 2.94743ZM0.572454 8.65436C0.28023 8.48056 0.180853 8.0966 0.350088 7.7965C0.519322 7.4964 0.893212 7.39435 1.18445 7.56814L3.60884 9.00498C3.90008 9.17877 4.00044 9.56274 3.8312 9.86283C3.66197 10.1619 3.28808 10.265 2.99684 10.0912L0.572454 8.65436ZM25.8159 7.56814C26.1082 7.39637 26.4811 7.49943 26.6483 7.79852C26.8156 8.09862 26.7153 8.48157 26.424 8.65335L23.9996 10.0902C23.7074 10.262 23.3345 10.1589 23.1672 9.85879C23 9.55971 23.1003 9.17574 23.3916 9.00397L25.8159 7.56814ZM20.2568 2.31894C20.426 2.01884 20.7999 1.91679 21.0921 2.09059C21.3834 2.26438 21.4837 2.64834 21.3145 2.94743L19.9154 5.43714C19.7461 5.73623 19.3722 5.83929 19.08 5.6655C18.7888 5.4917 18.6884 5.10774 18.8577 4.80865L20.2568 2.31894ZM12.8862 0.628489C12.8862 0.2809 13.1607 0 13.4982 0C13.8367 0 14.1102 0.281911 14.1102 0.628489V3.50317C14.1102 3.85076 13.8357 4.13166 13.4982 4.13166C13.1598 4.13166 12.8862 3.84975 12.8862 3.50317V0.628489Z" fill="#DA254C"/>
</svg>
