<svg width="92" height="31" viewBox="0 0 92 31" fill="none" xmlns="http://www.w3.org/2000/svg">
<path d="M37.5206 23.5674H40.9856V7.43406H37.5206V23.5674ZM44.4951 23.5674H47.9601V7.43406H44.4951V23.5674ZM22.72 10.8451H33.1595V7.43406H22.72V10.8451ZM22.72 17.2062H33.1595V13.7952H22.72V17.2062ZM22.72 23.5674H33.1595V20.1564H22.72V23.5674ZM7.9194 23.5674H18.3589V13.7952H11.3844V10.8451H18.3589V7.43406H7.9194V17.2062H14.8939V20.1564H7.9194V23.5674ZM0 31H55.8967V0H0V31ZM52.5021 27.6583H3.39464V3.34172H52.5021V27.6583Z" fill="white"/>
<path d="M61.1469 8.10573C61.2517 8.49023 61.4168 8.63017 61.7672 8.63017C62.1463 8.63017 62.3172 8.46761 62.3172 8.11138C62.3172 7.94317 62.2684 7.81877 62.1793 7.74951C62.1171 7.69485 61.9285 7.62464 61.6136 7.53888C60.9099 7.33391 60.6414 7.02009 60.6414 6.40236C60.6414 5.67718 61.065 5.27148 61.8175 5.27148C62.4766 5.27148 62.8126 5.53724 62.9605 6.16911L62.3115 6.35288C62.1908 5.98535 62.0803 5.88215 61.8175 5.88215C61.5375 5.88215 61.3838 6.05603 61.3838 6.35853C61.3838 6.66104 61.5317 6.8024 62.0042 6.93669C62.4493 7.06109 62.5541 7.10491 62.7178 7.2293C62.949 7.39752 63.0582 7.66752 63.0582 8.07322C63.0582 8.85776 62.6345 9.24791 61.7773 9.24791C61.2876 9.24791 60.9372 9.11786 60.7276 8.86341C60.6227 8.72771 60.5509 8.5708 60.4863 8.29515L61.1454 8.10573H61.1469Z" fill="white"/>
<path d="M64.2197 7.82442L63.1484 5.3252H63.9669L64.6103 7.00171L65.2478 5.3252H66.0663L64.9951 7.82442V9.18712H64.2197V7.82442Z" fill="white"/>
<path d="M66.4443 5.3252H67.2025L68.3671 7.79191V5.3252H69.1038V9.18712H68.3614L67.1795 6.70344V9.18712H66.4429V5.3252H66.4443Z" fill="white"/>
<path d="M69.7759 5.32499H70.9404C71.9083 5.30379 72.3304 5.71938 72.3089 6.66649V7.84542C72.3304 8.79253 71.9126 9.20388 70.9404 9.18692H69.7759V5.32499ZM70.8801 8.57625C71.3971 8.57625 71.5292 8.41934 71.5335 7.75354V6.75837C71.5277 6.09257 71.3956 5.93566 70.8801 5.93566H70.5499V8.57625H70.8801Z" fill="white"/>
<path d="M72.9131 5.3252H73.6885V9.18712H72.9131V5.3252Z" fill="white"/>
<path d="M76.8032 8.07908C76.7874 8.45226 76.7257 8.65723 76.5835 8.84241C76.3739 9.11241 76.0278 9.24811 75.5611 9.24811C75.0944 9.24811 74.7369 9.10676 74.5272 8.81556C74.3678 8.59362 74.3018 8.30101 74.3018 7.78788V6.73758C74.3018 6.17497 74.3793 5.87246 74.576 5.64488C74.7957 5.39043 75.0987 5.27734 75.5539 5.27734C76.3394 5.27734 76.7242 5.64488 76.7515 6.42942L76.0422 6.45062C76.0034 6.05058 75.8713 5.89367 75.564 5.89367C75.1906 5.89367 75.0743 6.10429 75.0743 6.7913V7.73275C75.0743 8.41975 75.1892 8.63038 75.5683 8.63038C75.8986 8.63038 76.0522 8.45226 76.0852 8.03525L76.7989 8.07908H76.8032Z" fill="white"/>
<path d="M78.0153 8.44075L77.8172 9.18712H76.9814L78.2393 5.3252H78.943L80.2009 9.18712H79.3652L79.167 8.44075H78.0125H78.0153ZM78.5926 6.2822L78.1805 7.83432H79.0105L78.5926 6.2822Z" fill="white"/>
<path d="M80.8513 5.94717H79.9883V5.3252H82.484V5.94717H81.6267V9.18712H80.8513V5.94717Z" fill="white"/>
<path d="M60.8164 10.7351H61.981C62.9474 10.7139 63.371 11.1295 63.3494 12.0766V13.2556C63.371 14.2027 62.9531 14.614 61.981 14.5971H60.8164V10.7351ZM61.9207 13.9864C62.4376 13.9864 62.5697 13.8295 62.574 13.1637V12.1685C62.5683 11.5027 62.4362 11.3458 61.9207 11.3458H61.5904V13.9864H61.9207Z" fill="white"/>
<path d="M63.96 10.7349H66.1369V11.3568H64.7296V12.3365H65.9172V12.9584H64.7296V13.9762H66.1584V14.5982H63.96V10.7363V10.7349Z" fill="white"/>
<path d="M67.1781 13.5154C67.283 13.8999 67.4481 14.0398 67.7985 14.0398C68.1776 14.0398 68.3484 13.8773 68.3484 13.5211C68.3484 13.3528 68.2982 13.2284 68.2106 13.1592C68.1484 13.1045 67.9598 13.0343 67.6448 12.9485C66.9412 12.7436 66.6727 12.4298 66.6727 11.812C66.6727 11.0869 67.0963 10.6812 67.8487 10.6812C68.5078 10.6812 68.8439 10.9469 68.9918 11.5788L68.3427 11.7625C68.2221 11.395 68.1115 11.2918 67.8487 11.2918C67.5687 11.2918 67.4151 11.4657 67.4151 11.7682C67.4151 12.0707 67.563 12.2121 68.0354 12.3464C68.4806 12.4708 68.5854 12.5146 68.7491 12.639C68.9803 12.8072 69.0894 13.0772 69.0894 13.4829C69.0894 14.2674 68.6658 14.6576 67.8085 14.6576C67.3189 14.6576 66.967 14.5275 66.7588 14.2731C66.654 14.1374 66.5836 13.9805 66.5176 13.7048L67.1767 13.5154H67.1781Z" fill="white"/>
<path d="M70.6187 10.7349H72.7956V11.3569H71.3883V12.3365H72.5759V12.9585H71.3883V13.9762H72.8171V14.5982H70.6187V10.7363V10.7349ZM71.7617 9.55029H72.5701L71.8995 10.3886H71.3553L71.7617 9.55029Z" fill="white"/>
<path d="M73.3628 10.7351H74.5274C75.4938 10.7139 75.9174 11.1295 75.8959 12.0766V13.2556C75.9174 14.2027 75.4995 14.614 74.5274 14.5971H73.3628V10.7351ZM74.4671 13.9864C74.984 13.9864 75.1161 13.8295 75.1204 13.1637V12.1685C75.1147 11.5027 74.9826 11.3458 74.4671 11.3458H74.1368V13.9864H74.4671Z" fill="white"/>
<path d="M76.5005 10.7349H77.2759V14.5968H76.5005V10.7349Z" fill="white"/>
<path d="M78.6052 11.3568H77.7422V10.7349H80.2379V11.3568H79.3806V14.5968H78.6052V11.3568Z" fill="white"/>
<path d="M80.7119 10.7349H82.8888V11.3568H81.4816V12.3365H82.6691V12.9584H81.4816V13.9762H82.9104V14.5982H80.7119V10.7363V10.7349Z" fill="white"/>
<path d="M84.2129 10.7349V13.2723C84.2129 13.8829 84.312 14.0398 84.7126 14.0398C85.1133 14.0398 85.2066 13.8829 85.2066 13.2723V10.7349H85.982V13.2723C85.982 13.808 85.9332 14.0398 85.7738 14.2462C85.5541 14.5332 85.2353 14.6576 84.7126 14.6576C84.1526 14.6576 83.8051 14.512 83.6026 14.1812C83.4763 13.9861 83.4375 13.7585 83.4375 13.2723V10.7349H84.2129Z" fill="white"/>
<path d="M87.4209 14.5968H86.6455V10.7349H87.8761C88.3759 10.7349 88.6286 10.8112 88.8268 11.0049C89.0134 11.1943 89.0967 11.4586 89.0967 11.8643C89.0967 12.5245 88.9373 12.8114 88.4864 12.9683L89.2288 14.5968H88.3715L87.734 13.0277H87.4209V14.5968ZM87.8216 12.4439C88.1849 12.4439 88.327 12.2926 88.327 11.9025C88.327 11.5123 88.1892 11.3455 87.8216 11.3455H87.4037V12.4439H87.8216Z" fill="white"/>
<path d="M90.0873 13.5154C90.1921 13.8999 90.3573 14.0398 90.7076 14.0398C91.0867 14.0398 91.2576 13.8773 91.2576 13.5211C91.2576 13.3528 91.2074 13.2284 91.1198 13.1592C91.0575 13.1045 90.869 13.0343 90.554 12.9485C89.8504 12.7436 89.5818 12.4298 89.5818 11.812C89.5818 11.0869 90.0055 10.6812 90.7579 10.6812C91.417 10.6812 91.753 10.9469 91.9009 11.5788L91.2519 11.7625C91.1313 11.395 91.0207 11.2918 90.7579 11.2918C90.4779 11.2918 90.3242 11.4657 90.3242 11.7682C90.3242 12.0707 90.4722 12.2121 90.9446 12.3464C91.3897 12.4708 91.4946 12.5146 91.6583 12.639C91.8895 12.8072 91.9986 13.0772 91.9986 13.4829C91.9986 14.2674 91.575 14.6576 90.7177 14.6576C90.228 14.6576 89.8762 14.5275 89.668 14.2731C89.5632 14.1374 89.4928 13.9805 89.4268 13.7048L90.0859 13.5154H90.0873Z" fill="white"/>
<path d="M60.8164 16.1448H61.981C62.9474 16.1236 63.371 16.5392 63.3494 17.4863V18.6652C63.371 19.6123 62.9531 20.0237 61.981 20.0067H60.8164V16.1448ZM61.9207 19.3961C62.4376 19.3961 62.5697 19.2392 62.574 18.5734V17.5782C62.5683 16.9124 62.4362 16.7555 61.9207 16.7555H61.5904V19.3961H61.9207Z" fill="white"/>
<path d="M63.96 16.145H66.1369V16.767H64.7296V17.7466H65.9172V18.3686H64.7296V19.3864H66.1584V20.0084H63.96V16.1464V16.145Z" fill="white"/>
<path d="M67.7192 16.145H68.4947V19.385H69.9177V20.0069H67.7192V16.145Z" fill="white"/>
<path d="M70.3227 17.492C70.3227 16.9831 70.4003 16.6919 70.5927 16.4643C70.8124 16.1985 71.1254 16.0854 71.6309 16.0854C72.1694 16.0854 72.4996 16.2212 72.7136 16.5293C72.873 16.7512 72.9333 17.0269 72.9333 17.492V18.661C72.9333 19.1699 72.8557 19.4611 72.6633 19.6887C72.4436 19.9544 72.1306 20.0675 71.6294 20.0675C71.0852 20.0675 70.7564 19.9318 70.5352 19.6237C70.3816 19.4017 70.3213 19.1261 70.3213 18.661V17.492H70.3227ZM72.1579 17.557C72.1579 16.9082 72.0315 16.7018 71.6309 16.7018C71.2302 16.7018 71.0981 16.9067 71.0981 17.557V18.596C71.0981 19.2448 71.2245 19.4512 71.6309 19.4512C72.0373 19.4512 72.1579 19.2448 72.1579 18.596V17.557Z" fill="white"/>
<path d="M74.8391 17.8651H76.097V18.5465C76.097 19.0978 76.0367 19.3791 75.8716 19.618C75.6461 19.9318 75.3159 20.0675 74.7831 20.0675C74.2891 20.0675 73.9431 19.9261 73.7219 19.6349C73.5568 19.413 73.4907 19.1204 73.4907 18.6073V17.5527C73.4907 16.9958 73.5683 16.6933 73.7765 16.46C73.9962 16.2112 74.315 16.0981 74.7759 16.0981C75.5786 16.0981 75.9692 16.4657 75.9965 17.2446L75.2871 17.2714C75.2541 16.877 75.1119 16.7145 74.7874 16.7145C74.3911 16.7145 74.2647 16.9251 74.2647 17.6079V18.555C74.2647 19.2363 74.3911 19.4526 74.7975 19.4526C75.1823 19.4526 75.3302 19.242 75.3302 18.7119V18.4518H74.8362V17.868L74.8391 17.8651Z" fill="white"/>
<path d="M76.6655 16.145H77.4409V20.0069H76.6655V16.145Z" fill="white"/>
<path d="M80.5557 18.8984C80.5384 19.2716 80.4781 19.4766 80.336 19.6617C80.1278 19.9317 79.7803 20.0674 79.3136 20.0674C78.8469 20.0674 78.4893 19.9261 78.2811 19.6349C78.1217 19.413 78.0557 19.1203 78.0557 18.6072V17.5569C78.0557 16.9943 78.1332 16.6918 78.3299 16.4642C78.5496 16.2098 78.8526 16.0967 79.3078 16.0967C80.0933 16.0967 80.4781 16.4642 80.5054 17.2488L79.7961 17.27C79.7573 16.8699 79.6252 16.713 79.3179 16.713C78.9445 16.713 78.8282 16.9236 78.8282 17.6106V18.5521C78.8282 19.2391 78.9431 19.4497 79.3222 19.4497C79.6525 19.4497 79.8061 19.2716 79.8391 18.8546L80.5528 18.8984H80.5557Z" fill="white"/>
<path d="M81.0898 16.145H81.8653V20.0069H81.0898V16.145Z" fill="white"/>
<path d="M82.5342 16.145H84.7111V16.767H83.3039V17.7466H84.4914V18.3686H83.3039V19.3864H84.7327V20.0084H82.5342V16.1464V16.145Z" fill="white"/>
<path d="M85.2783 16.145H86.0538V19.385H87.4768V20.0069H85.2783V16.145Z" fill="white"/>
<path d="M88.4276 18.9256C88.5325 19.3101 88.6976 19.45 89.048 19.45C89.4271 19.45 89.598 19.2874 89.598 18.9312C89.598 18.763 89.5491 18.6386 89.4601 18.5693C89.3979 18.5147 89.2093 18.4445 88.8943 18.3587C88.1907 18.1537 87.9222 17.8399 87.9222 17.2222C87.9222 16.497 88.3458 16.0913 89.0982 16.0913C89.7573 16.0913 90.0934 16.3571 90.2413 16.9889L89.5922 17.1727C89.4716 16.8052 89.361 16.702 89.0982 16.702C88.8182 16.702 88.6646 16.8759 88.6646 17.1784C88.6646 17.4809 88.8125 17.6222 89.2849 17.7579C89.7301 17.8823 89.8349 17.9261 89.9986 18.0505C90.2298 18.2188 90.3389 18.4888 90.3389 18.8945C90.3389 19.679 89.9153 20.0692 89.058 20.0692C88.5684 20.0692 88.218 19.9391 88.0083 19.6847C87.9035 19.549 87.8317 19.392 87.7671 19.1164L88.4262 18.927L88.4276 18.9256Z" fill="white"/>
<path d="M60.8164 21.5545H61.981C62.9474 21.5333 63.371 21.9489 63.3494 22.896V24.0749C63.371 25.022 62.9531 25.4334 61.981 25.4164H60.8164V21.5545ZM61.9207 24.8057C62.4376 24.8057 62.5697 24.6488 62.574 23.983V22.9879C62.5683 22.3221 62.4362 22.1652 61.9207 22.1652H61.5904V24.8057H61.9207Z" fill="white"/>
<path d="M63.96 21.5547H66.1369V22.1767H64.7296V23.1563H65.9172V23.7783H64.7296V24.796H66.1584V25.418H63.96V21.5561V21.5547Z" fill="white"/>
<path d="M67.7192 21.5547H68.4947V24.7946H69.9177V25.4166H67.7192V21.5547Z" fill="white"/>
<path d="M70.3227 22.9016C70.3227 22.3927 70.4003 22.1015 70.5927 21.874C70.8124 21.6082 71.1254 21.4951 71.6309 21.4951C72.1694 21.4951 72.4996 21.6308 72.7136 21.939C72.873 22.1609 72.9333 22.4366 72.9333 22.9016V24.0707C72.9333 24.5796 72.8557 24.8708 72.6633 25.0984C72.4436 25.3641 72.1306 25.4772 71.6294 25.4772C71.0852 25.4772 70.7564 25.3415 70.5352 25.0333C70.3816 24.8114 70.3213 24.5357 70.3213 24.0707V22.9016H70.3227ZM72.1579 22.9667C72.1579 22.3178 72.0315 22.1114 71.6309 22.1114C71.2302 22.1114 71.0981 22.3164 71.0981 22.9667V24.0057C71.0981 24.6545 71.2245 24.8609 71.6309 24.8609C72.0373 24.8609 72.1579 24.6545 72.1579 24.0057V22.9667Z" fill="white"/>
<path d="M73.5522 21.5547H74.3277V25.4166H73.5522V21.5547Z" fill="white"/>
<path d="M75.455 24.3352C75.5598 24.7197 75.725 24.8597 76.0753 24.8597C76.4544 24.8597 76.6253 24.6971 76.6253 24.3409C76.6253 24.1727 76.5765 24.0483 76.4875 23.979C76.4252 23.9243 76.2366 23.8541 75.9217 23.7684C75.2181 23.5634 74.9495 23.2496 74.9495 22.6318C74.9495 21.9067 75.3731 21.501 76.1256 21.501C76.7847 21.501 77.1207 21.7667 77.2686 22.3986L76.6196 22.5824C76.4989 22.2148 76.3884 22.1116 76.1256 22.1116C75.8456 22.1116 75.6919 22.2855 75.6919 22.588C75.6919 22.8905 75.8398 23.0319 76.3123 23.1676C76.7574 23.292 76.8622 23.3358 77.0259 23.4602C77.2571 23.6284 77.3663 23.8984 77.3663 24.3041C77.3663 25.0887 76.9427 25.4788 76.0854 25.4788C75.5957 25.4788 75.2453 25.3488 75.0357 25.0943C74.9309 24.9586 74.8591 24.8017 74.7944 24.5261L75.4536 24.3366L75.455 24.3352Z" fill="white"/>
<path d="M77.8945 21.5547H78.67V25.4166H77.8945V21.5547Z" fill="white"/>
<path d="M80.1148 25.4166H79.3394V21.5547H80.57C81.0697 21.5547 81.3224 21.631 81.5206 21.8247C81.7073 22.0141 81.7906 22.2784 81.7906 22.6841C81.7906 23.3443 81.6312 23.6312 81.1803 23.7882L81.9227 25.4166H81.0654L80.4278 23.8475H80.1148V25.4166ZM80.5154 23.2637C80.8787 23.2637 81.0209 23.1125 81.0209 22.7223C81.0209 22.3322 80.883 22.1654 80.5154 22.1654H80.0975V23.2637H80.5154Z" fill="white"/>
<path d="M82.7797 24.3352C82.8845 24.7197 83.0497 24.8597 83.4 24.8597C83.7791 24.8597 83.95 24.6971 83.95 24.3409C83.95 24.1727 83.9012 24.0483 83.8122 23.979C83.7499 23.9243 83.5613 23.8541 83.2464 23.7684C82.5428 23.5634 82.2742 23.2496 82.2742 22.6318C82.2742 21.9067 82.6978 21.501 83.4503 21.501C84.1094 21.501 84.4454 21.7667 84.5933 22.3986L83.9443 22.5824C83.8236 22.2148 83.7131 22.1116 83.4503 22.1116C83.1703 22.1116 83.0166 22.2855 83.0166 22.588C83.0166 22.8905 83.1645 23.0319 83.637 23.1676C84.0821 23.292 84.1869 23.3358 84.3506 23.4602C84.5818 23.6284 84.691 23.8984 84.691 24.3041C84.691 25.0887 84.2674 25.4788 83.4101 25.4788C82.9204 25.4788 82.57 25.3488 82.3604 25.0943C82.2556 24.9586 82.1838 24.8017 82.1191 24.5261L82.7783 24.3366L82.7797 24.3352Z" fill="white"/>
</svg>
